solid 
   facet normal 1.000000e+000 0.000000e+000 -0.000000e+000
      outer loop
         vertex -2.000000e+000 -2.000000e+000 -1.800000e+001
         vertex -2.000000e+000 1.400000e+001 -1.800000e+001
         vertex -2.000000e+000 1.400000e+001 0.000000e+000
      endloop
   endfacet
   facet normal 1.000000e+000 0.000000e+000 0.000000e+000
      outer loop
         vertex -2.000000e+000 -2.000000e+000 -1.800000e+001
         vertex -2.000000e+000 1.400000e+001 0.000000e+000
         vertex -2.000000e+000 -2.000000e+000 0.000000e+000
      endloop
   endfacet
   facet normal 0.000000e+000 -1.000000e+000 0.000000e+000
      outer loop
         vertex -2.000000e+000 1.400000e+001 -1.800000e+001
         vertex 3.300000e+001 1.400000e+001 -1.800000e+001
         vertex 3.300000e+001 1.400000e+001 0.000000e+000
      endloop
   endfacet
   facet normal -0.000000e+000 -1.000000e+000 0.000000e+000
      outer loop
         vertex -2.000000e+000 1.400000e+001 -1.800000e+001
         vertex 3.300000e+001 1.400000e+001 0.000000e+000
         vertex -2.000000e+000 1.400000e+001 0.000000e+000
      endloop
   endfacet
   facet normal -1.000000e+000 0.000000e+000 0.000000e+000
      outer loop
         vertex 3.300000e+001 1.400000e+001 -1.800000e+001
         vertex 3.300000e+001 -2.000000e+000 -1.800000e+001
         vertex 3.300000e+001 -2.000000e+000 0.000000e+000
      endloop
   endfacet
   facet normal -1.000000e+000 0.000000e+000 0.000000e+000
      outer loop
         vertex 3.300000e+001 1.400000e+001 -1.800000e+001
         vertex 3.300000e+001 -2.000000e+000 0.000000e+000
         vertex 3.300000e+001 1.400000e+001 0.000000e+000
      endloop
   endfacet
   facet normal 0.000000e+000 1.000000e+000 0.000000e+000
      outer loop
         vertex 3.300000e+001 -2.000000e+000 -1.800000e+001
         vertex -2.000000e+000 -2.000000e+000 -1.800000e+001
         vertex -2.000000e+000 -2.000000e+000 0.000000e+000
      endloop
   endfacet
   facet normal -0.000000e+000 1.000000e+000 0.000000e+000
      outer loop
         vertex 3.300000e+001 -2.000000e+000 -1.800000e+001
         vertex -2.000000e+000 -2.000000e+000 0.000000e+000
         vertex 3.300000e+001 -2.000000e+000 0.000000e+000
      endloop
   endfacet
   facet normal 0.000000e+000 1.000000e+000 0.000000e+000
      outer loop
         vertex 4.000000e+001 1.600000e+001 -1.800000e+001
         vertex -9.000000e+000 1.600000e+001 -1.800000e+001
         vertex -5.500000e+000 1.600000e+001 -1.500000e+001
      endloop
   endfacet
   facet normal 0.000000e+000 1.000000e+000 0.000000e+000
      outer loop
         vertex -9.000000e+000 1.600000e+001 -1.500000e+001
         vertex -5.500000e+000 1.600000e+001 -1.500000e+001
         vertex -9.000000e+000 1.600000e+001 -1.800000e+001
      endloop
   endfacet
   facet normal 0.000000e+000 1.000000e+000 0.000000e+000
      outer loop
         vertex -4.000000e+000 1.600000e+001 2.000000e+000
         vertex 3.500000e+001 1.600000e+001 2.000000e+000
         vertex -4.000000e+000 1.600000e+001 -1.350000e+001
      endloop
   endfacet
   facet normal 0.000000e+000 1.000000e+000 0.000000e+000
      outer loop
         vertex 3.650000e+001 1.600000e+001 -1.500000e+001
         vertex 4.000000e+001 1.600000e+001 -1.500000e+001
         vertex 4.000000e+001 1.600000e+001 -1.800000e+001
      endloop
   endfacet
   facet normal 0.000000e+000 1.000000e+000 0.000000e+000
      outer loop
         vertex -4.000000e+000 1.600000e+001 -1.350000e+001
         vertex 3.500000e+001 1.600000e+001 2.000000e+000
         vertex 3.500000e+001 1.600000e+001 -1.350000e+001
      endloop
   endfacet
   facet normal -0.000000e+000 1.000000e+000 0.000000e+000
      outer loop
         vertex -5.500000e+000 1.600000e+001 -1.500000e+001
         vertex -4.000000e+000 1.600000e+001 -1.350000e+001
         vertex 3.500000e+001 1.600000e+001 -1.350000e+001
      endloop
   endfacet
   facet normal -0.000000e+000 1.000000e+000 0.000000e+000
      outer loop
         vertex 4.000000e+001 1.600000e+001 -1.800000e+001
         vertex -5.500000e+000 1.600000e+001 -1.500000e+001
         vertex 3.650000e+001 1.600000e+001 -1.500000e+001
      endloop
   endfacet
   facet normal 0.000000e+000 1.000000e+000 0.000000e+000
      outer loop
         vertex 3.650000e+001 1.600000e+001 -1.500000e+001
         vertex -5.500000e+000 1.600000e+001 -1.500000e+001
         vertex 3.500000e+001 1.600000e+001 -1.350000e+001
      endloop
   endfacet
   facet normal 0.000000e+000 -1.000000e+000 0.000000e+000
      outer loop
         vertex -9.000000e+000 -4.000000e+000 -1.800000e+001
         vertex 4.000000e+001 -4.000000e+000 -1.800000e+001
         vertex 3.650000e+001 -4.000000e+000 -1.500000e+001
      endloop
   endfacet
   facet normal 0.000000e+000 -1.000000e+000 0.000000e+000
      outer loop
         vertex 4.000000e+001 -4.000000e+000 -1.500000e+001
         vertex 3.650000e+001 -4.000000e+000 -1.500000e+001
         vertex 4.000000e+001 -4.000000e+000 -1.800000e+001
      endloop
   endfacet
   facet normal 0.000000e+000 -1.000000e+000 0.000000e+000
      outer loop
         vertex 3.500000e+001 -4.000000e+000 2.000000e+000
         vertex -4.000000e+000 -4.000000e+000 2.000000e+000
         vertex 3.500000e+001 -4.000000e+000 -1.350000e+001
      endloop
   endfacet
   facet normal 0.000000e+000 -1.000000e+000 0.000000e+000
      outer loop
         vertex -5.500000e+000 -4.000000e+000 -1.500000e+001
         vertex -9.000000e+000 -4.000000e+000 -1.500000e+001
         vertex -9.000000e+000 -4.000000e+000 -1.800000e+001
      endloop
   endfacet
   facet normal 0.000000e+000 -1.000000e+000 0.000000e+000
      outer loop
         vertex 3.500000e+001 -4.000000e+000 -1.350000e+001
         vertex -4.000000e+000 -4.000000e+000 2.000000e+000
         vertex -4.000000e+000 -4.000000e+000 -1.350000e+001
      endloop
   endfacet
   facet normal -0.000000e+000 -1.000000e+000 -0.000000e+000
      outer loop
         vertex 3.650000e+001 -4.000000e+000 -1.500000e+001
         vertex 3.500000e+001 -4.000000e+000 -1.350000e+001
         vertex -4.000000e+000 -4.000000e+000 -1.350000e+001
      endloop
   endfacet
   facet normal -0.000000e+000 -1.000000e+000 0.000000e+000
      outer loop
         vertex -9.000000e+000 -4.000000e+000 -1.800000e+001
         vertex 3.650000e+001 -4.000000e+000 -1.500000e+001
         vertex -5.500000e+000 -4.000000e+000 -1.500000e+001
      endloop
   endfacet
   facet normal 0.000000e+000 -1.000000e+000 0.000000e+000
      outer loop
         vertex -5.500000e+000 -4.000000e+000 -1.500000e+001
         vertex 3.650000e+001 -4.000000e+000 -1.500000e+001
         vertex -4.000000e+000 -4.000000e+000 -1.350000e+001
      endloop
   endfacet
   facet normal 1.000000e+000 0.000000e+000 0.000000e+000
      outer loop
         vertex 3.500000e+001 -4.000000e+000 2.000000e+000
         vertex 3.500000e+001 -4.000000e+000 -1.350000e+001
         vertex 3.500000e+001 1.600000e+001 -1.350000e+001
      endloop
   endfacet
   facet normal 1.000000e+000 -0.000000e+000 0.000000e+000
      outer loop
         vertex 3.500000e+001 1.600000e+001 2.000000e+000
         vertex 3.500000e+001 -4.000000e+000 2.000000e+000
         vertex 3.500000e+001 1.600000e+001 -1.350000e+001
      endloop
   endfacet
   facet normal -1.000000e+000 0.000000e+000 0.000000e+000
      outer loop
         vertex -4.000000e+000 1.600000e+001 2.000000e+000
         vertex -4.000000e+000 1.600000e+001 -1.350000e+001
         vertex -4.000000e+000 -4.000000e+000 -1.350000e+001
      endloop
   endfacet
   facet normal -1.000000e+000 -0.000000e+000 0.000000e+000
      outer loop
         vertex -4.000000e+000 -4.000000e+000 2.000000e+000
         vertex -4.000000e+000 1.600000e+001 2.000000e+000
         vertex -4.000000e+000 -4.000000e+000 -1.350000e+001
      endloop
   endfacet
   facet normal 0.000000e+000 0.000000e+000 1.000000e+000
      outer loop
         vertex -1.175000e+001 6.000000e+000 -1.500000e+001
         vertex -1.400000e+001 1.100000e+001 -1.500000e+001
         vertex -1.400000e+001 1.000000e+000 -1.500000e+001
      endloop
   endfacet
   facet normal 0.000000e+000 0.000000e+000 1.000000e+000
      outer loop
         vertex -9.125000e+000 7.515544e+000 -1.500000e+001
         vertex -5.500000e+000 1.600000e+001 -1.500000e+001
         vertex -9.000000e+000 1.600000e+001 -1.500000e+001
      endloop
   endfacet
   facet normal 0.000000e+000 -0.000000e+000 1.000000e+000
      outer loop
         vertex -9.125000e+000 4.484456e+000 -1.500000e+001
         vertex -9.000000e+000 -4.000000e+000 -1.500000e+001
         vertex -5.500000e+000 -4.000000e+000 -1.500000e+001
      endloop
   endfacet
   facet normal 0.000000e+000 0.000000e+000 1.000000e+000
      outer loop
         vertex -1.400000e+001 1.000000e+000 -1.500000e+001
         vertex -1.134058e+001 4.875122e+000 -1.500000e+001
         vertex -1.175000e+001 6.000000e+000 -1.500000e+001
      endloop
   endfacet
   facet normal 0.000000e+000 0.000000e+000 1.000000e+000
      outer loop
         vertex -9.000000e+000 -4.000000e+000 -1.500000e+001
         vertex -9.125000e+000 4.484456e+000 -1.500000e+001
         vertex -1.030388e+001 4.276587e+000 -1.500000e+001
      endloop
   endfacet
   facet normal -0.000000e+000 0.000000e+000 1.000000e+000
      outer loop
         vertex -5.500000e+000 1.600000e+001 -1.500000e+001
         vertex -8.355538e+000 6.598535e+000 -1.500000e+001
         vertex -8.355538e+000 5.401465e+000 -1.500000e+001
      endloop
   endfacet
   facet normal -0.000000e+000 0.000000e+000 1.000000e+000
      outer loop
         vertex -9.000000e+000 1.600000e+001 -1.500000e+001
         vertex -1.030388e+001 7.723413e+000 -1.500000e+001
         vertex -9.125000e+000 7.515544e+000 -1.500000e+001
      endloop
   endfacet
   facet normal 0.000000e+000 -0.000000e+000 1.000000e+000
      outer loop
         vertex -1.400000e+001 1.100000e+001 -1.500000e+001
         vertex -1.175000e+001 6.000000e+000 -1.500000e+001
         vertex -1.134058e+001 7.124878e+000 -1.500000e+001
      endloop
   endfacet
   facet normal -0.000000e+000 0.000000e+000 1.000000e+000
      outer loop
         vertex -8.355538e+000 5.401465e+000 -1.500000e+001
         vertex -9.125000e+000 4.484456e+000 -1.500000e+001
         vertex -5.500000e+000 -4.000000e+000 -1.500000e+001
      endloop
   endfacet
   facet normal 0.000000e+000 0.000000e+000 1.000000e+000
      outer loop
         vertex -5.500000e+000 -4.000000e+000 -1.500000e+001
         vertex -5.500000e+000 1.600000e+001 -1.500000e+001
         vertex -8.355538e+000 5.401465e+000 -1.500000e+001
      endloop
   endfacet
   facet normal 0.000000e+000 0.000000e+000 1.000000e+000
      outer loop
         vertex -1.030388e+001 7.723413e+000 -1.500000e+001
         vertex -1.400000e+001 1.100000e+001 -1.500000e+001
         vertex -1.134058e+001 7.124878e+000 -1.500000e+001
      endloop
   endfacet
   facet normal 0.000000e+000 0.000000e+000 1.000000e+000
      outer loop
         vertex -1.030388e+001 7.723413e+000 -1.500000e+001
         vertex -9.000000e+000 1.600000e+001 -1.500000e+001
         vertex -1.400000e+001 1.100000e+001 -1.500000e+001
      endloop
   endfacet
   facet normal 0.000000e+000 0.000000e+000 1.000000e+000
      outer loop
         vertex -1.400000e+001 1.000000e+000 -1.500000e+001
         vertex -1.030388e+001 4.276587e+000 -1.500000e+001
         vertex -1.134058e+001 4.875122e+000 -1.500000e+001
      endloop
   endfacet
   facet normal 0.000000e+000 0.000000e+000 1.000000e+000
      outer loop
         vertex -8.355538e+000 6.598535e+000 -1.500000e+001
         vertex -5.500000e+000 1.600000e+001 -1.500000e+001
         vertex -9.125000e+000 7.515544e+000 -1.500000e+001
      endloop
   endfacet
   facet normal -0.000000e+000 0.000000e+000 1.000000e+000
      outer loop
         vertex -1.030388e+001 4.276587e+000 -1.500000e+001
         vertex -1.400000e+001 1.000000e+000 -1.500000e+001
         vertex -9.000000e+000 -4.000000e+000 -1.500000e+001
      endloop
   endfacet
   facet normal 0.000000e+000 0.000000e+000 1.000000e+000
      outer loop
         vertex 4.069612e+001 4.276587e+000 -1.500000e+001
         vertex 3.650000e+001 -4.000000e+000 -1.500000e+001
         vertex 4.000000e+001 -4.000000e+000 -1.500000e+001
      endloop
   endfacet
   facet normal 0.000000e+000 0.000000e+000 1.000000e+000
      outer loop
         vertex 4.069612e+001 7.723413e+000 -1.500000e+001
         vertex 4.000000e+001 1.600000e+001 -1.500000e+001
         vertex 3.650000e+001 1.600000e+001 -1.500000e+001
      endloop
   endfacet
   facet normal 0.000000e+000 -0.000000e+000 1.000000e+000
      outer loop
         vertex 4.264446e+001 5.401465e+000 -1.500000e+001
         vertex 4.500000e+001 1.000000e+000 -1.500000e+001
         vertex 4.500000e+001 1.100000e+001 -1.500000e+001
      endloop
   endfacet
   facet normal 0.000000e+000 0.000000e+000 1.000000e+000
      outer loop
         vertex 3.650000e+001 -4.000000e+000 -1.500000e+001
         vertex 3.965942e+001 4.875122e+000 -1.500000e+001
         vertex 3.925000e+001 6.000000e+000 -1.500000e+001
      endloop
   endfacet
   facet normal 0.000000e+000 0.000000e+000 1.000000e+000
      outer loop
         vertex 4.500000e+001 1.000000e+000 -1.500000e+001
         vertex 4.187500e+001 4.484456e+000 -1.500000e+001
         vertex 4.069612e+001 4.276587e+000 -1.500000e+001
      endloop
   endfacet
   facet normal -0.000000e+000 0.000000e+000 1.000000e+000
      outer loop
         vertex 4.500000e+001 1.100000e+001 -1.500000e+001
         vertex 4.264446e+001 6.598535e+000 -1.500000e+001
         vertex 4.264446e+001 5.401465e+000 -1.500000e+001
      endloop
   endfacet
   facet normal -0.000000e+000 0.000000e+000 1.000000e+000
      outer loop
         vertex 4.500000e+001 1.100000e+001 -1.500000e+001
         vertex 4.069612e+001 7.723413e+000 -1.500000e+001
         vertex 4.187500e+001 7.515544e+000 -1.500000e+001
      endloop
   endfacet
   facet normal 0.000000e+000 -0.000000e+000 1.000000e+000
      outer loop
         vertex 3.650000e+001 1.600000e+001 -1.500000e+001
         vertex 3.925000e+001 6.000000e+000 -1.500000e+001
         vertex 3.965942e+001 7.124878e+000 -1.500000e+001
      endloop
   endfacet
   facet normal 0.000000e+000 0.000000e+000 1.000000e+000
      outer loop
         vertex 3.965942e+001 4.875122e+000 -1.500000e+001
         vertex 3.650000e+001 -4.000000e+000 -1.500000e+001
         vertex 4.069612e+001 4.276587e+000 -1.500000e+001
      endloop
   endfacet
   facet normal 0.000000e+000 0.000000e+000 1.000000e+000
      outer loop
         vertex 4.187500e+001 4.484456e+000 -1.500000e+001
         vertex 4.500000e+001 1.000000e+000 -1.500000e+001
         vertex 4.264446e+001 5.401465e+000 -1.500000e+001
      endloop
   endfacet
   facet normal 0.000000e+000 -0.000000e+000 1.000000e+000
      outer loop
         vertex 4.187500e+001 7.515544e+000 -1.500000e+001
         vertex 4.264446e+001 6.598535e+000 -1.500000e+001
         vertex 4.500000e+001 1.100000e+001 -1.500000e+001
      endloop
   endfacet
   facet normal 0.000000e+000 0.000000e+000 1.000000e+000
      outer loop
         vertex 3.650000e+001 -4.000000e+000 -1.500000e+001
         vertex 3.925000e+001 6.000000e+000 -1.500000e+001
         vertex 3.650000e+001 1.600000e+001 -1.500000e+001
      endloop
   endfacet
   facet normal 0.000000e+000 0.000000e+000 1.000000e+000
      outer loop
         vertex 4.069612e+001 7.723413e+000 -1.500000e+001
         vertex 4.500000e+001 1.100000e+001 -1.500000e+001
         vertex 4.000000e+001 1.600000e+001 -1.500000e+001
      endloop
   endfacet
   facet normal 0.000000e+000 -0.000000e+000 1.000000e+000
      outer loop
         vertex 3.650000e+001 1.600000e+001 -1.500000e+001
         vertex 3.965942e+001 7.124878e+000 -1.500000e+001
         vertex 4.069612e+001 7.723413e+000 -1.500000e+001
      endloop
   endfacet
   facet normal 0.000000e+000 0.000000e+000 1.000000e+000
      outer loop
         vertex 4.000000e+001 -4.000000e+000 -1.500000e+001
         vertex 4.500000e+001 1.000000e+000 -1.500000e+001
         vertex 4.069612e+001 4.276587e+000 -1.500000e+001
      endloop
   endfacet
   facet normal 0.000000e+000 0.000000e+000 -1.000000e+000
      outer loop
         vertex 2.500000e+001 0.000000e+000 0.000000e+000
         vertex 3.300000e+001 -2.000000e+000 0.000000e+000
         vertex -2.000000e+000 -2.000000e+000 0.000000e+000
      endloop
   endfacet
   facet normal 0.000000e+000 0.000000e+000 -1.000000e+000
      outer loop
         vertex 6.000000e+000 1.200000e+001 0.000000e+000
         vertex -2.000000e+000 1.400000e+001 0.000000e+000
         vertex 3.300000e+001 1.400000e+001 0.000000e+000
      endloop
   endfacet
   facet normal 0.000000e+000 0.000000e+000 -1.000000e+000
      outer loop
         vertex 2.600000e+001 6.000000e+000 0.000000e+000
         vertex 2.500000e+001 0.000000e+000 0.000000e+000
         vertex 2.500000e+001 1.200000e+001 0.000000e+000
      endloop
   endfacet
   facet normal 0.000000e+000 -0.000000e+000 -1.000000e+000
      outer loop
         vertex 5.000000e+000 6.000000e+000 0.000000e+000
         vertex 6.000000e+000 1.200000e+001 0.000000e+000
         vertex 6.000000e+000 0.000000e+000 0.000000e+000
      endloop
   endfacet
   facet normal 0.000000e+000 0.000000e+000 -1.000000e+000
      outer loop
         vertex 6.000000e+000 0.000000e+000 0.000000e+000
         vertex 4.618034e+000 4.824430e+000 0.000000e+000
         vertex 5.000000e+000 6.000000e+000 0.000000e+000
      endloop
   endfacet
   facet normal 0.000000e+000 0.000000e+000 -1.000000e+000
      outer loop
         vertex 6.000000e+000 0.000000e+000 0.000000e+000
         vertex 2.381966e+000 4.097887e+000 0.000000e+000
         vertex 3.618034e+000 4.097887e+000 0.000000e+000
      endloop
   endfacet
   facet normal 0.000000e+000 -0.000000e+000 -1.000000e+000
      outer loop
         vertex -2.000000e+000 -2.000000e+000 0.000000e+000
         vertex 1.000000e+000 6.000000e+000 0.000000e+000
         vertex 1.381966e+000 4.824430e+000 0.000000e+000
      endloop
   endfacet
   facet normal -0.000000e+000 0.000000e+000 -1.000000e+000
      outer loop
         vertex -2.000000e+000 1.400000e+001 0.000000e+000
         vertex 2.381966e+000 7.902113e+000 0.000000e+000
         vertex 1.381966e+000 7.175570e+000 0.000000e+000
      endloop
   endfacet
   facet normal 0.000000e+000 0.000000e+000 -1.000000e+000
      outer loop
         vertex 6.000000e+000 1.200000e+001 0.000000e+000
         vertex 4.618034e+000 7.175570e+000 0.000000e+000
         vertex 3.618034e+000 7.902113e+000 0.000000e+000
      endloop
   endfacet
   facet normal 0.000000e+000 0.000000e+000 -1.000000e+000
      outer loop
         vertex 3.300000e+001 -2.000000e+000 0.000000e+000
         vertex 2.961803e+001 4.824430e+000 0.000000e+000
         vertex 3.000000e+001 6.000000e+000 0.000000e+000
      endloop
   endfacet
   facet normal 0.000000e+000 -0.000000e+000 -1.000000e+000
      outer loop
         vertex 2.500000e+001 0.000000e+000 0.000000e+000
         vertex 2.738197e+001 4.097887e+000 0.000000e+000
         vertex 2.861803e+001 4.097887e+000 0.000000e+000
      endloop
   endfacet
   facet normal 0.000000e+000 -0.000000e+000 -1.000000e+000
      outer loop
         vertex 2.500000e+001 0.000000e+000 0.000000e+000
         vertex 2.600000e+001 6.000000e+000 0.000000e+000
         vertex 2.638197e+001 4.824430e+000 0.000000e+000
      endloop
   endfacet
   facet normal -0.000000e+000 0.000000e+000 -1.000000e+000
      outer loop
         vertex 2.500000e+001 1.200000e+001 0.000000e+000
         vertex 2.738197e+001 7.902113e+000 0.000000e+000
         vertex 2.638197e+001 7.175570e+000 0.000000e+000
      endloop
   endfacet
   facet normal 0.000000e+000 0.000000e+000 -1.000000e+000
      outer loop
         vertex 3.300000e+001 1.400000e+001 0.000000e+000
         vertex 2.961803e+001 7.175570e+000 0.000000e+000
         vertex 2.861803e+001 7.902113e+000 0.000000e+000
      endloop
   endfacet
   facet normal -0.000000e+000 0.000000e+000 -1.000000e+000
      outer loop
         vertex 6.000000e+000 0.000000e+000 0.000000e+000
         vertex 2.500000e+001 0.000000e+000 0.000000e+000
         vertex -2.000000e+000 -2.000000e+000 0.000000e+000
      endloop
   endfacet
   facet normal 0.000000e+000 0.000000e+000 -1.000000e+000
      outer loop
         vertex 2.381966e+000 7.902113e+000 0.000000e+000
         vertex -2.000000e+000 1.400000e+001 0.000000e+000
         vertex 6.000000e+000 1.200000e+001 0.000000e+000
      endloop
   endfacet
   facet normal 0.000000e+000 0.000000e+000 -1.000000e+000
      outer loop
         vertex 4.618034e+000 7.175570e+000 0.000000e+000
         vertex 6.000000e+000 1.200000e+001 0.000000e+000
         vertex 5.000000e+000 6.000000e+000 0.000000e+000
      endloop
   endfacet
   facet normal 0.000000e+000 -0.000000e+000 -1.000000e+000
      outer loop
         vertex -2.000000e+000 -2.000000e+000 0.000000e+000
         vertex 2.381966e+000 4.097887e+000 0.000000e+000
         vertex 6.000000e+000 0.000000e+000 0.000000e+000
      endloop
   endfacet
   facet normal -0.000000e+000 0.000000e+000 -1.000000e+000
      outer loop
         vertex -2.000000e+000 1.400000e+001 0.000000e+000
         vertex 1.000000e+000 6.000000e+000 0.000000e+000
         vertex -2.000000e+000 -2.000000e+000 0.000000e+000
      endloop
   endfacet
   facet normal 0.000000e+000 0.000000e+000 -1.000000e+000
      outer loop
         vertex 3.300000e+001 1.400000e+001 0.000000e+000
         vertex 3.300000e+001 -2.000000e+000 0.000000e+000
         vertex 3.000000e+001 6.000000e+000 0.000000e+000
      endloop
   endfacet
   facet normal -0.000000e+000 0.000000e+000 -1.000000e+000
      outer loop
         vertex 2.638197e+001 4.824430e+000 0.000000e+000
         vertex 2.738197e+001 4.097887e+000 0.000000e+000
         vertex 2.500000e+001 0.000000e+000 0.000000e+000
      endloop
   endfacet
   facet normal 0.000000e+000 0.000000e+000 -1.000000e+000
      outer loop
         vertex 2.500000e+001 1.200000e+001 0.000000e+000
         vertex 3.300000e+001 1.400000e+001 0.000000e+000
         vertex 2.861803e+001 7.902113e+000 0.000000e+000
      endloop
   endfacet
   facet normal 0.000000e+000 0.000000e+000 -1.000000e+000
      outer loop
         vertex 3.618034e+000 7.902113e+000 0.000000e+000
         vertex 2.381966e+000 7.902113e+000 0.000000e+000
         vertex 6.000000e+000 1.200000e+001 0.000000e+000
      endloop
   endfacet
   facet normal 0.000000e+000 0.000000e+000 -1.000000e+000
      outer loop
         vertex 2.738197e+001 7.902113e+000 0.000000e+000
         vertex 2.500000e+001 1.200000e+001 0.000000e+000
         vertex 2.861803e+001 7.902113e+000 0.000000e+000
      endloop
   endfacet
   facet normal 0.000000e+000 0.000000e+000 -1.000000e+000
      outer loop
         vertex 6.000000e+000 0.000000e+000 0.000000e+000
         vertex 3.618034e+000 4.097887e+000 0.000000e+000
         vertex 4.618034e+000 4.824430e+000 0.000000e+000
      endloop
   endfacet
   facet normal -0.000000e+000 0.000000e+000 -1.000000e+000
      outer loop
         vertex -2.000000e+000 1.400000e+001 0.000000e+000
         vertex 1.381966e+000 7.175570e+000 0.000000e+000
         vertex 1.000000e+000 6.000000e+000 0.000000e+000
      endloop
   endfacet
   facet normal -0.000000e+000 0.000000e+000 -1.000000e+000
      outer loop
         vertex 2.500000e+001 1.200000e+001 0.000000e+000
         vertex 2.638197e+001 7.175570e+000 0.000000e+000
         vertex 2.600000e+001 6.000000e+000 0.000000e+000
      endloop
   endfacet
   facet normal 0.000000e+000 0.000000e+000 -1.000000e+000
      outer loop
         vertex 2.861803e+001 4.097887e+000 0.000000e+000
         vertex 3.300000e+001 -2.000000e+000 0.000000e+000
         vertex 2.500000e+001 0.000000e+000 0.000000e+000
      endloop
   endfacet
   facet normal 0.000000e+000 0.000000e+000 -1.000000e+000
      outer loop
         vertex 2.381966e+000 4.097887e+000 0.000000e+000
         vertex -2.000000e+000 -2.000000e+000 0.000000e+000
         vertex 1.381966e+000 4.824430e+000 0.000000e+000
      endloop
   endfacet
   facet normal 0.000000e+000 0.000000e+000 -1.000000e+000
      outer loop
         vertex 2.961803e+001 7.175570e+000 0.000000e+000
         vertex 3.300000e+001 1.400000e+001 0.000000e+000
         vertex 3.000000e+001 6.000000e+000 0.000000e+000
      endloop
   endfacet
   facet normal 0.000000e+000 0.000000e+000 -1.000000e+000
      outer loop
         vertex 3.300000e+001 1.400000e+001 0.000000e+000
         vertex 2.500000e+001 1.200000e+001 0.000000e+000
         vertex 6.000000e+000 1.200000e+001 0.000000e+000
      endloop
   endfacet
   facet normal 0.000000e+000 -0.000000e+000 -1.000000e+000
      outer loop
         vertex 2.861803e+001 4.097887e+000 0.000000e+000
         vertex 2.961803e+001 4.824430e+000 0.000000e+000
         vertex 3.300000e+001 -2.000000e+000 0.000000e+000
      endloop
   endfacet
   facet normal 0.000000e+000 0.000000e+000 -1.000000e+000
      outer loop
         vertex 4.500000e+001 1.100000e+001 -1.800000e+001
         vertex 4.500000e+001 1.000000e+000 -1.800000e+001
         vertex 4.264446e+001 5.401465e+000 -1.800000e+001
      endloop
   endfacet
   facet normal 0.000000e+000 0.000000e+000 -1.000000e+000
      outer loop
         vertex 4.000000e+001 -4.000000e+000 -1.800000e+001
         vertex -9.000000e+000 -4.000000e+000 -1.800000e+001
         vertex -2.000000e+000 -2.000000e+000 -1.800000e+001
      endloop
   endfacet
   facet normal 0.000000e+000 0.000000e+000 -1.000000e+000
      outer loop
         vertex -1.400000e+001 1.000000e+000 -1.800000e+001
         vertex -1.400000e+001 1.100000e+001 -1.800000e+001
         vertex -1.175000e+001 6.000000e+000 -1.800000e+001
      endloop
   endfacet
   facet normal -0.000000e+000 0.000000e+000 -1.000000e+000
      outer loop
         vertex -9.000000e+000 1.600000e+001 -1.800000e+001
         vertex 4.000000e+001 1.600000e+001 -1.800000e+001
         vertex 3.300000e+001 1.400000e+001 -1.800000e+001
      endloop
   endfacet
   facet normal 0.000000e+000 0.000000e+000 -1.000000e+000
      outer loop
         vertex 3.300000e+001 -2.000000e+000 -1.800000e+001
         vertex 3.300000e+001 1.400000e+001 -1.800000e+001
         vertex 3.925000e+001 6.000000e+000 -1.800000e+001
      endloop
   endfacet
   facet normal 0.000000e+000 0.000000e+000 -1.000000e+000
      outer loop
         vertex -2.000000e+000 1.400000e+001 -1.800000e+001
         vertex -2.000000e+000 -2.000000e+000 -1.800000e+001
         vertex -8.355538e+000 5.401465e+000 -1.800000e+001
      endloop
   endfacet
   facet normal 0.000000e+000 0.000000e+000 -1.000000e+000
      outer loop
         vertex 3.965942e+001 7.124878e+000 -1.800000e+001
         vertex 3.925000e+001 6.000000e+000 -1.800000e+001
         vertex 3.300000e+001 1.400000e+001 -1.800000e+001
      endloop
   endfacet
   facet normal -0.000000e+000 0.000000e+000 -1.000000e+000
      outer loop
         vertex 3.965942e+001 4.875122e+000 -1.800000e+001
         vertex 4.069612e+001 4.276587e+000 -1.800000e+001
         vertex 4.000000e+001 -4.000000e+000 -1.800000e+001
      endloop
   endfacet
   facet normal 0.000000e+000 -0.000000e+000 -1.000000e+000
      outer loop
         vertex 4.187500e+001 4.484456e+000 -1.800000e+001
         vertex 4.264446e+001 5.401465e+000 -1.800000e+001
         vertex 4.500000e+001 1.000000e+000 -1.800000e+001
      endloop
   endfacet
   facet normal 0.000000e+000 0.000000e+000 -1.000000e+000
      outer loop
         vertex 4.264446e+001 6.598535e+000 -1.800000e+001
         vertex 4.187500e+001 7.515544e+000 -1.800000e+001
         vertex 4.500000e+001 1.100000e+001 -1.800000e+001
      endloop
   endfacet
   facet normal 0.000000e+000 0.000000e+000 -1.000000e+000
      outer loop
         vertex 4.069612e+001 7.723413e+000 -1.800000e+001
         vertex 3.965942e+001 7.124878e+000 -1.800000e+001
         vertex 4.000000e+001 1.600000e+001 -1.800000e+001
      endloop
   endfacet
   facet normal -0.000000e+000 0.000000e+000 -1.000000e+000
      outer loop
         vertex -1.175000e+001 6.000000e+000 -1.800000e+001
         vertex -1.134058e+001 4.875122e+000 -1.800000e+001
         vertex -1.400000e+001 1.000000e+000 -1.800000e+001
      endloop
   endfacet
   facet normal 0.000000e+000 -0.000000e+000 -1.000000e+000
      outer loop
         vertex -1.030388e+001 4.276587e+000 -1.800000e+001
         vertex -9.125000e+000 4.484456e+000 -1.800000e+001
         vertex -9.000000e+000 -4.000000e+000 -1.800000e+001
      endloop
   endfacet
   facet normal 0.000000e+000 0.000000e+000 -1.000000e+000
      outer loop
         vertex -8.355538e+000 5.401465e+000 -1.800000e+001
         vertex -8.355538e+000 6.598535e+000 -1.800000e+001
         vertex -2.000000e+000 1.400000e+001 -1.800000e+001
      endloop
   endfacet
   facet normal 0.000000e+000 0.000000e+000 -1.000000e+000
      outer loop
         vertex -9.125000e+000 7.515544e+000 -1.800000e+001
         vertex -1.030388e+001 7.723413e+000 -1.800000e+001
         vertex -9.000000e+000 1.600000e+001 -1.800000e+001
      endloop
   endfacet
   facet normal 0.000000e+000 0.000000e+000 -1.000000e+000
      outer loop
         vertex 4.500000e+001 1.100000e+001 -1.800000e+001
         vertex 4.264446e+001 5.401465e+000 -1.800000e+001
         vertex 4.264446e+001 6.598535e+000 -1.800000e+001
      endloop
   endfacet
   facet normal 0.000000e+000 0.000000e+000 -1.000000e+000
      outer loop
         vertex -1.175000e+001 6.000000e+000 -1.800000e+001
         vertex -1.400000e+001 1.100000e+001 -1.800000e+001
         vertex -1.134058e+001 7.124878e+000 -1.800000e+001
      endloop
   endfacet
   facet normal 0.000000e+000 -0.000000e+000 -1.000000e+000
      outer loop
         vertex 3.300000e+001 -2.000000e+000 -1.800000e+001
         vertex 3.925000e+001 6.000000e+000 -1.800000e+001
         vertex 3.965942e+001 4.875122e+000 -1.800000e+001
      endloop
   endfacet
   facet normal 0.000000e+000 0.000000e+000 -1.000000e+000
      outer loop
         vertex 3.965942e+001 4.875122e+000 -1.800000e+001
         vertex 4.000000e+001 -4.000000e+000 -1.800000e+001
         vertex 3.300000e+001 -2.000000e+000 -1.800000e+001
      endloop
   endfacet
   facet normal 0.000000e+000 0.000000e+000 -1.000000e+000
      outer loop
         vertex 4.187500e+001 4.484456e+000 -1.800000e+001
         vertex 4.500000e+001 1.000000e+000 -1.800000e+001
         vertex 4.069612e+001 4.276587e+000 -1.800000e+001
      endloop
   endfacet
   facet normal 0.000000e+000 0.000000e+000 -1.000000e+000
      outer loop
         vertex 4.000000e+001 1.600000e+001 -1.800000e+001
         vertex 3.965942e+001 7.124878e+000 -1.800000e+001
         vertex 3.300000e+001 1.400000e+001 -1.800000e+001
      endloop
   endfacet
   facet normal 0.000000e+000 0.000000e+000 -1.000000e+000
      outer loop
         vertex -2.000000e+000 1.400000e+001 -1.800000e+001
         vertex -8.355538e+000 6.598535e+000 -1.800000e+001
         vertex -9.125000e+000 7.515544e+000 -1.800000e+001
      endloop
   endfacet
   facet normal 0.000000e+000 0.000000e+000 -1.000000e+000
      outer loop
         vertex -1.134058e+001 7.124878e+000 -1.800000e+001
         vertex -1.400000e+001 1.100000e+001 -1.800000e+001
         vertex -1.030388e+001 7.723413e+000 -1.800000e+001
      endloop
   endfacet
   facet normal 0.000000e+000 0.000000e+000 -1.000000e+000
      outer loop
         vertex -2.000000e+000 1.400000e+001 -1.800000e+001
         vertex -9.125000e+000 7.515544e+000 -1.800000e+001
         vertex -9.000000e+000 1.600000e+001 -1.800000e+001
      endloop
   endfacet
   facet normal 0.000000e+000 0.000000e+000 -1.000000e+000
      outer loop
         vertex 4.500000e+001 1.000000e+000 -1.800000e+001
         vertex 4.000000e+001 -4.000000e+000 -1.800000e+001
         vertex 4.069612e+001 4.276587e+000 -1.800000e+001
      endloop
   endfacet
   facet normal 0.000000e+000 0.000000e+000 -1.000000e+000
      outer loop
         vertex -1.400000e+001 1.100000e+001 -1.800000e+001
         vertex -9.000000e+000 1.600000e+001 -1.800000e+001
         vertex -1.030388e+001 7.723413e+000 -1.800000e+001
      endloop
   endfacet
   facet normal 0.000000e+000 0.000000e+000 -1.000000e+000
      outer loop
         vertex 3.300000e+001 1.400000e+001 -1.800000e+001
         vertex -2.000000e+000 1.400000e+001 -1.800000e+001
         vertex -9.000000e+000 1.600000e+001 -1.800000e+001
      endloop
   endfacet
   facet normal 0.000000e+000 0.000000e+000 -1.000000e+000
      outer loop
         vertex 4.187500e+001 7.515544e+000 -1.800000e+001
         vertex 4.069612e+001 7.723413e+000 -1.800000e+001
         vertex 4.500000e+001 1.100000e+001 -1.800000e+001
      endloop
   endfacet
   facet normal 0.000000e+000 -0.000000e+000 -1.000000e+000
      outer loop
         vertex -9.125000e+000 4.484456e+000 -1.800000e+001
         vertex -8.355538e+000 5.401465e+000 -1.800000e+001
         vertex -2.000000e+000 -2.000000e+000 -1.800000e+001
      endloop
   endfacet
   facet normal 0.000000e+000 0.000000e+000 -1.000000e+000
      outer loop
         vertex -2.000000e+000 -2.000000e+000 -1.800000e+001
         vertex -9.000000e+000 -4.000000e+000 -1.800000e+001
         vertex -9.125000e+000 4.484456e+000 -1.800000e+001
      endloop
   endfacet
   facet normal 0.000000e+000 -0.000000e+000 -1.000000e+000
      outer loop
         vertex -1.400000e+001 1.000000e+000 -1.800000e+001
         vertex -1.134058e+001 4.875122e+000 -1.800000e+001
         vertex -1.030388e+001 4.276587e+000 -1.800000e+001
      endloop
   endfacet
   facet normal 0.000000e+000 0.000000e+000 -1.000000e+000
      outer loop
         vertex 4.500000e+001 1.100000e+001 -1.800000e+001
         vertex 4.069612e+001 7.723413e+000 -1.800000e+001
         vertex 4.000000e+001 1.600000e+001 -1.800000e+001
      endloop
   endfacet
   facet normal 0.000000e+000 0.000000e+000 -1.000000e+000
      outer loop
         vertex -9.000000e+000 -4.000000e+000 -1.800000e+001
         vertex -1.400000e+001 1.000000e+000 -1.800000e+001
         vertex -1.030388e+001 4.276587e+000 -1.800000e+001
      endloop
   endfacet
   facet normal 0.000000e+000 0.000000e+000 -1.000000e+000
      outer loop
         vertex 4.000000e+001 -4.000000e+000 -1.800000e+001
         vertex -2.000000e+000 -2.000000e+000 -1.800000e+001
         vertex 3.300000e+001 -2.000000e+000 -1.800000e+001
      endloop
   endfacet
   facet normal 0.000000e+000 0.000000e+000 1.000000e+000
      outer loop
         vertex 3.500000e+001 -4.000000e+000 2.000000e+000
         vertex 3.500000e+001 1.600000e+001 2.000000e+000
         vertex 3.000000e+001 6.000000e+000 2.000000e+000
      endloop
   endfacet
   facet normal 0.000000e+000 0.000000e+000 1.000000e+000
      outer loop
         vertex -4.000000e+000 1.600000e+001 2.000000e+000
         vertex -4.000000e+000 -4.000000e+000 2.000000e+000
         vertex 1.000000e+000 6.000000e+000 2.000000e+000
      endloop
   endfacet
   facet normal 0.000000e+000 0.000000e+000 1.000000e+000
      outer loop
         vertex 2.500000e+001 1.200000e+001 2.000000e+000
         vertex 2.500000e+001 0.000000e+000 2.000000e+000
         vertex 2.600000e+001 6.000000e+000 2.000000e+000
      endloop
   endfacet
   facet normal 0.000000e+000 0.000000e+000 1.000000e+000
      outer loop
         vertex 6.000000e+000 0.000000e+000 2.000000e+000
         vertex 6.000000e+000 1.200000e+001 2.000000e+000
         vertex 5.000000e+000 6.000000e+000 2.000000e+000
      endloop
   endfacet
   facet normal 0.000000e+000 -0.000000e+000 1.000000e+000
      outer loop
         vertex 2.961803e+001 7.175570e+000 2.000000e+000
         vertex 3.000000e+001 6.000000e+000 2.000000e+000
         vertex 3.500000e+001 1.600000e+001 2.000000e+000
      endloop
   endfacet
   facet normal -0.000000e+000 0.000000e+000 1.000000e+000
      outer loop
         vertex 2.961803e+001 4.824430e+000 2.000000e+000
         vertex 2.861803e+001 4.097887e+000 2.000000e+000
         vertex 3.500000e+001 -4.000000e+000 2.000000e+000
      endloop
   endfacet
   facet normal 0.000000e+000 0.000000e+000 1.000000e+000
      outer loop
         vertex 2.738197e+001 4.097887e+000 2.000000e+000
         vertex 2.638197e+001 4.824430e+000 2.000000e+000
         vertex 2.500000e+001 0.000000e+000 2.000000e+000
      endloop
   endfacet
   facet normal 0.000000e+000 0.000000e+000 1.000000e+000
      outer loop
         vertex 2.600000e+001 6.000000e+000 2.000000e+000
         vertex 2.638197e+001 7.175570e+000 2.000000e+000
         vertex 2.500000e+001 1.200000e+001 2.000000e+000
      endloop
   endfacet
   facet normal 0.000000e+000 0.000000e+000 1.000000e+000
      outer loop
         vertex 2.738197e+001 7.902113e+000 2.000000e+000
         vertex 2.861803e+001 7.902113e+000 2.000000e+000
         vertex 2.500000e+001 1.200000e+001 2.000000e+000
      endloop
   endfacet
   facet normal 0.000000e+000 -0.000000e+000 1.000000e+000
      outer loop
         vertex 4.618034e+000 7.175570e+000 2.000000e+000
         vertex 5.000000e+000 6.000000e+000 2.000000e+000
         vertex 6.000000e+000 1.200000e+001 2.000000e+000
      endloop
   endfacet
   facet normal -0.000000e+000 0.000000e+000 1.000000e+000
      outer loop
         vertex 4.618034e+000 4.824430e+000 2.000000e+000
         vertex 3.618034e+000 4.097887e+000 2.000000e+000
         vertex 6.000000e+000 0.000000e+000 2.000000e+000
      endloop
   endfacet
   facet normal 0.000000e+000 0.000000e+000 1.000000e+000
      outer loop
         vertex 2.381966e+000 4.097887e+000 2.000000e+000
         vertex 1.381966e+000 4.824430e+000 2.000000e+000
         vertex -4.000000e+000 -4.000000e+000 2.000000e+000
      endloop
   endfacet
   facet normal 0.000000e+000 0.000000e+000 1.000000e+000
      outer loop
         vertex 1.000000e+000 6.000000e+000 2.000000e+000
         vertex 1.381966e+000 7.175570e+000 2.000000e+000
         vertex -4.000000e+000 1.600000e+001 2.000000e+000
      endloop
   endfacet
   facet normal 0.000000e+000 -0.000000e+000 1.000000e+000
      outer loop
         vertex 2.381966e+000 7.902113e+000 2.000000e+000
         vertex 3.618034e+000 7.902113e+000 2.000000e+000
         vertex 6.000000e+000 1.200000e+001 2.000000e+000
      endloop
   endfacet
   facet normal 0.000000e+000 0.000000e+000 1.000000e+000
      outer loop
         vertex 3.500000e+001 -4.000000e+000 2.000000e+000
         vertex 3.000000e+001 6.000000e+000 2.000000e+000
         vertex 2.961803e+001 4.824430e+000 2.000000e+000
      endloop
   endfacet
   facet normal 0.000000e+000 0.000000e+000 1.000000e+000
      outer loop
         vertex 6.000000e+000 0.000000e+000 2.000000e+000
         vertex 5.000000e+000 6.000000e+000 2.000000e+000
         vertex 4.618034e+000 4.824430e+000 2.000000e+000
      endloop
   endfacet
   facet normal 0.000000e+000 0.000000e+000 1.000000e+000
      outer loop
         vertex 2.738197e+001 4.097887e+000 2.000000e+000
         vertex 2.500000e+001 0.000000e+000 2.000000e+000
         vertex 2.861803e+001 4.097887e+000 2.000000e+000
      endloop
   endfacet
   facet normal 0.000000e+000 0.000000e+000 1.000000e+000
      outer loop
         vertex 2.738197e+001 7.902113e+000 2.000000e+000
         vertex 2.500000e+001 1.200000e+001 2.000000e+000
         vertex 2.638197e+001 7.175570e+000 2.000000e+000
      endloop
   endfacet
   facet normal 0.000000e+000 0.000000e+000 1.000000e+000
      outer loop
         vertex 2.381966e+000 4.097887e+000 2.000000e+000
         vertex -4.000000e+000 -4.000000e+000 2.000000e+000
         vertex 6.000000e+000 0.000000e+000 2.000000e+000
      endloop
   endfacet
   facet normal 0.000000e+000 -0.000000e+000 1.000000e+000
      outer loop
         vertex -4.000000e+000 1.600000e+001 2.000000e+000
         vertex 1.381966e+000 7.175570e+000 2.000000e+000
         vertex 2.381966e+000 7.902113e+000 2.000000e+000
      endloop
   endfacet
   facet normal -0.000000e+000 0.000000e+000 1.000000e+000
      outer loop
         vertex 2.861803e+001 4.097887e+000 2.000000e+000
         vertex 2.500000e+001 0.000000e+000 2.000000e+000
         vertex 3.500000e+001 -4.000000e+000 2.000000e+000
      endloop
   endfacet
   facet normal 0.000000e+000 -0.000000e+000 1.000000e+000
      outer loop
         vertex -4.000000e+000 1.600000e+001 2.000000e+000
         vertex 2.381966e+000 7.902113e+000 2.000000e+000
         vertex 6.000000e+000 1.200000e+001 2.000000e+000
      endloop
   endfacet
   facet normal -0.000000e+000 0.000000e+000 1.000000e+000
      outer loop
         vertex 3.500000e+001 1.600000e+001 2.000000e+000
         vertex -4.000000e+000 1.600000e+001 2.000000e+000
         vertex 2.500000e+001 1.200000e+001 2.000000e+000
      endloop
   endfacet
   facet normal -0.000000e+000 0.000000e+000 1.000000e+000
      outer loop
         vertex 2.500000e+001 0.000000e+000 2.000000e+000
         vertex 6.000000e+000 0.000000e+000 2.000000e+000
         vertex 3.500000e+001 -4.000000e+000 2.000000e+000
      endloop
   endfacet
   facet normal 0.000000e+000 0.000000e+000 1.000000e+000
      outer loop
         vertex 2.638197e+001 4.824430e+000 2.000000e+000
         vertex 2.600000e+001 6.000000e+000 2.000000e+000
         vertex 2.500000e+001 0.000000e+000 2.000000e+000
      endloop
   endfacet
   facet normal -0.000000e+000 0.000000e+000 1.000000e+000
      outer loop
         vertex 3.618034e+000 4.097887e+000 2.000000e+000
         vertex 2.381966e+000 4.097887e+000 2.000000e+000
         vertex 6.000000e+000 0.000000e+000 2.000000e+000
      endloop
   endfacet
   facet normal 0.000000e+000 -0.000000e+000 1.000000e+000
      outer loop
         vertex 3.618034e+000 7.902113e+000 2.000000e+000
         vertex 4.618034e+000 7.175570e+000 2.000000e+000
         vertex 6.000000e+000 1.200000e+001 2.000000e+000
      endloop
   endfacet
   facet normal 0.000000e+000 0.000000e+000 1.000000e+000
      outer loop
         vertex 2.961803e+001 7.175570e+000 2.000000e+000
         vertex 3.500000e+001 1.600000e+001 2.000000e+000
         vertex 2.861803e+001 7.902113e+000 2.000000e+000
      endloop
   endfacet
   facet normal 0.000000e+000 0.000000e+000 1.000000e+000
      outer loop
         vertex 6.000000e+000 0.000000e+000 2.000000e+000
         vertex -4.000000e+000 -4.000000e+000 2.000000e+000
         vertex 3.500000e+001 -4.000000e+000 2.000000e+000
      endloop
   endfacet
   facet normal 0.000000e+000 0.000000e+000 1.000000e+000
      outer loop
         vertex 2.500000e+001 1.200000e+001 2.000000e+000
         vertex -4.000000e+000 1.600000e+001 2.000000e+000
         vertex 6.000000e+000 1.200000e+001 2.000000e+000
      endloop
   endfacet
   facet normal 0.000000e+000 0.000000e+000 1.000000e+000
      outer loop
         vertex 1.381966e+000 4.824430e+000 2.000000e+000
         vertex 1.000000e+000 6.000000e+000 2.000000e+000
         vertex -4.000000e+000 -4.000000e+000 2.000000e+000
      endloop
   endfacet
   facet normal -0.000000e+000 0.000000e+000 1.000000e+000
      outer loop
         vertex 3.500000e+001 1.600000e+001 2.000000e+000
         vertex 2.500000e+001 1.200000e+001 2.000000e+000
         vertex 2.861803e+001 7.902113e+000 2.000000e+000
      endloop
   endfacet
   facet normal 1.000000e+000 -0.000000e+000 0.000000e+000
      outer loop
         vertex 4.500000e+001 1.100000e+001 -1.500000e+001
         vertex 4.500000e+001 1.000000e+000 -1.500000e+001
         vertex 4.500000e+001 1.000000e+000 -1.800000e+001
      endloop
   endfacet
   facet normal 1.000000e+000 0.000000e+000 0.000000e+000
      outer loop
         vertex 4.500000e+001 1.100000e+001 -1.800000e+001
         vertex 4.500000e+001 1.100000e+001 -1.500000e+001
         vertex 4.500000e+001 1.000000e+000 -1.800000e+001
      endloop
   endfacet
   facet normal -1.000000e+000 0.000000e+000 0.000000e+000
      outer loop
         vertex -1.400000e+001 1.100000e+001 -1.800000e+001
         vertex -1.400000e+001 1.000000e+000 -1.800000e+001
         vertex -1.400000e+001 1.000000e+000 -1.500000e+001
      endloop
   endfacet
   facet normal -1.000000e+000 0.000000e+000 0.000000e+000
      outer loop
         vertex -1.400000e+001 1.100000e+001 -1.500000e+001
         vertex -1.400000e+001 1.100000e+001 -1.800000e+001
         vertex -1.400000e+001 1.000000e+000 -1.500000e+001
      endloop
   endfacet
   facet normal 9.396927e-001 -3.420199e-001 0.000000e+000
      outer loop
         vertex -1.134058e+001 7.124878e+000 -1.500000e+001
         vertex -1.175000e+001 6.000000e+000 -1.500000e+001
         vertex -1.175000e+001 6.000000e+000 -1.800000e+001
      endloop
   endfacet
   facet normal -1.736481e-001 -9.848078e-001 -0.000000e+000
      outer loop
         vertex -9.125000e+000 7.515544e+000 -1.800000e+001
         vertex -9.125000e+000 7.515544e+000 -1.500000e+001
         vertex -1.030388e+001 7.723413e+000 -1.500000e+001
      endloop
   endfacet
   facet normal -1.000000e+000 0.000000e+000 0.000000e+000
      outer loop
         vertex -8.355538e+000 5.401465e+000 -1.800000e+001
         vertex -8.355538e+000 5.401465e+000 -1.500000e+001
         vertex -8.355538e+000 6.598535e+000 -1.500000e+001
      endloop
   endfacet
   facet normal -1.736481e-001 9.848078e-001 0.000000e+000
      outer loop
         vertex -1.030388e+001 4.276587e+000 -1.800000e+001
         vertex -1.030388e+001 4.276587e+000 -1.500000e+001
         vertex -9.125000e+000 4.484456e+000 -1.500000e+001
      endloop
   endfacet
   facet normal 9.396927e-001 3.420199e-001 0.000000e+000
      outer loop
         vertex -1.175000e+001 6.000000e+000 -1.800000e+001
         vertex -1.175000e+001 6.000000e+000 -1.500000e+001
         vertex -1.134058e+001 4.875122e+000 -1.500000e+001
      endloop
   endfacet
   facet normal 4.999998e-001 8.660255e-001 -0.000000e+000
      outer loop
         vertex -1.030388e+001 4.276587e+000 -1.500000e+001
         vertex -1.030388e+001 4.276587e+000 -1.800000e+001
         vertex -1.134058e+001 4.875122e+000 -1.800000e+001
      endloop
   endfacet
   facet normal -7.660447e-001 6.427873e-001 0.000000e+000
      outer loop
         vertex -8.355538e+000 5.401465e+000 -1.500000e+001
         vertex -8.355538e+000 5.401465e+000 -1.800000e+001
         vertex -9.125000e+000 4.484456e+000 -1.800000e+001
      endloop
   endfacet
   facet normal -7.660447e-001 -6.427873e-001 0.000000e+000
      outer loop
         vertex -9.125000e+000 7.515544e+000 -1.500000e+001
         vertex -9.125000e+000 7.515544e+000 -1.800000e+001
         vertex -8.355538e+000 6.598535e+000 -1.800000e+001
      endloop
   endfacet
   facet normal 4.999998e-001 -8.660255e-001 0.000000e+000
      outer loop
         vertex -1.134058e+001 7.124878e+000 -1.500000e+001
         vertex -1.134058e+001 7.124878e+000 -1.800000e+001
         vertex -1.030388e+001 7.723413e+000 -1.800000e+001
      endloop
   endfacet
   facet normal 9.396927e-001 -3.420199e-001 0.000000e+000
      outer loop
         vertex -1.134058e+001 7.124878e+000 -1.800000e+001
         vertex -1.134058e+001 7.124878e+000 -1.500000e+001
         vertex -1.175000e+001 6.000000e+000 -1.800000e+001
      endloop
   endfacet
   facet normal -1.736481e-001 9.848078e-001 0.000000e+000
      outer loop
         vertex -9.125000e+000 4.484456e+000 -1.800000e+001
         vertex -1.030388e+001 4.276587e+000 -1.800000e+001
         vertex -9.125000e+000 4.484456e+000 -1.500000e+001
      endloop
   endfacet
   facet normal -7.660447e-001 6.427873e-001 0.000000e+000
      outer loop
         vertex -9.125000e+000 4.484456e+000 -1.500000e+001
         vertex -8.355538e+000 5.401465e+000 -1.500000e+001
         vertex -9.125000e+000 4.484456e+000 -1.800000e+001
      endloop
   endfacet
   facet normal 4.999998e-001 -8.660255e-001 0.000000e+000
      outer loop
         vertex -1.030388e+001 7.723413e+000 -1.800000e+001
         vertex -1.030388e+001 7.723413e+000 -1.500000e+001
         vertex -1.134058e+001 7.124878e+000 -1.500000e+001
      endloop
   endfacet
   facet normal 4.999998e-001 8.660255e-001 0.000000e+000
      outer loop
         vertex -1.134058e+001 4.875122e+000 -1.800000e+001
         vertex -1.134058e+001 4.875122e+000 -1.500000e+001
         vertex -1.030388e+001 4.276587e+000 -1.500000e+001
      endloop
   endfacet
   facet normal -1.000000e+000 0.000000e+000 0.000000e+000
      outer loop
         vertex -8.355538e+000 6.598535e+000 -1.500000e+001
         vertex -8.355538e+000 6.598535e+000 -1.800000e+001
         vertex -8.355538e+000 5.401465e+000 -1.800000e+001
      endloop
   endfacet
   facet normal -1.736481e-001 -9.848078e-001 0.000000e+000
      outer loop
         vertex -1.030388e+001 7.723413e+000 -1.800000e+001
         vertex -9.125000e+000 7.515544e+000 -1.800000e+001
         vertex -1.030388e+001 7.723413e+000 -1.500000e+001
      endloop
   endfacet
   facet normal 9.396927e-001 3.420199e-001 0.000000e+000
      outer loop
         vertex -1.175000e+001 6.000000e+000 -1.800000e+001
         vertex -1.134058e+001 4.875122e+000 -1.500000e+001
         vertex -1.134058e+001 4.875122e+000 -1.800000e+001
      endloop
   endfacet
   facet normal -7.660447e-001 -6.427873e-001 -0.000000e+000
      outer loop
         vertex -8.355538e+000 6.598535e+000 -1.800000e+001
         vertex -8.355538e+000 6.598535e+000 -1.500000e+001
         vertex -9.125000e+000 7.515544e+000 -1.500000e+001
      endloop
   endfacet
   facet normal 9.396922e-001 -3.420213e-001 0.000000e+000
      outer loop
         vertex 3.965942e+001 7.124878e+000 -1.500000e+001
         vertex 3.925000e+001 6.000000e+000 -1.500000e+001
         vertex 3.925000e+001 6.000000e+000 -1.800000e+001
      endloop
   endfacet
   facet normal -1.736484e-001 -9.848077e-001 -0.000000e+000
      outer loop
         vertex 4.187500e+001 7.515544e+000 -1.800000e+001
         vertex 4.187500e+001 7.515544e+000 -1.500000e+001
         vertex 4.069612e+001 7.723413e+000 -1.500000e+001
      endloop
   endfacet
   facet normal -1.000000e+000 0.000000e+000 0.000000e+000
      outer loop
         vertex 4.264446e+001 5.401465e+000 -1.800000e+001
         vertex 4.264446e+001 5.401465e+000 -1.500000e+001
         vertex 4.264446e+001 6.598535e+000 -1.500000e+001
      endloop
   endfacet
   facet normal -1.736484e-001 9.848077e-001 0.000000e+000
      outer loop
         vertex 4.069612e+001 4.276587e+000 -1.800000e+001
         vertex 4.069612e+001 4.276587e+000 -1.500000e+001
         vertex 4.187500e+001 4.484456e+000 -1.500000e+001
      endloop
   endfacet
   facet normal 9.396922e-001 3.420213e-001 0.000000e+000
      outer loop
         vertex 3.925000e+001 6.000000e+000 -1.800000e+001
         vertex 3.925000e+001 6.000000e+000 -1.500000e+001
         vertex 3.965942e+001 4.875122e+000 -1.500000e+001
      endloop
   endfacet
   facet normal 4.999998e-001 8.660255e-001 -0.000000e+000
      outer loop
         vertex 4.069612e+001 4.276587e+000 -1.500000e+001
         vertex 4.069612e+001 4.276587e+000 -1.800000e+001
         vertex 3.965942e+001 4.875122e+000 -1.800000e+001
      endloop
   endfacet
   facet normal -7.660443e-001 6.427878e-001 0.000000e+000
      outer loop
         vertex 4.264446e+001 5.401465e+000 -1.500000e+001
         vertex 4.264446e+001 5.401465e+000 -1.800000e+001
         vertex 4.187500e+001 4.484456e+000 -1.800000e+001
      endloop
   endfacet
   facet normal -7.660443e-001 -6.427878e-001 0.000000e+000
      outer loop
         vertex 4.187500e+001 7.515544e+000 -1.500000e+001
         vertex 4.187500e+001 7.515544e+000 -1.800000e+001
         vertex 4.264446e+001 6.598535e+000 -1.800000e+001
      endloop
   endfacet
   facet normal 4.999998e-001 -8.660255e-001 0.000000e+000
      outer loop
         vertex 3.965942e+001 7.124878e+000 -1.500000e+001
         vertex 3.965942e+001 7.124878e+000 -1.800000e+001
         vertex 4.069612e+001 7.723413e+000 -1.800000e+001
      endloop
   endfacet
   facet normal 9.396922e-001 -3.420213e-001 0.000000e+000
      outer loop
         vertex 3.965942e+001 7.124878e+000 -1.800000e+001
         vertex 3.965942e+001 7.124878e+000 -1.500000e+001
         vertex 3.925000e+001 6.000000e+000 -1.800000e+001
      endloop
   endfacet
   facet normal -1.736484e-001 9.848077e-001 0.000000e+000
      outer loop
         vertex 4.187500e+001 4.484456e+000 -1.800000e+001
         vertex 4.069612e+001 4.276587e+000 -1.800000e+001
         vertex 4.187500e+001 4.484456e+000 -1.500000e+001
      endloop
   endfacet
   facet normal -7.660443e-001 6.427878e-001 0.000000e+000
      outer loop
         vertex 4.187500e+001 4.484456e+000 -1.500000e+001
         vertex 4.264446e+001 5.401465e+000 -1.500000e+001
         vertex 4.187500e+001 4.484456e+000 -1.800000e+001
      endloop
   endfacet
   facet normal 4.999998e-001 -8.660255e-001 0.000000e+000
      outer loop
         vertex 4.069612e+001 7.723413e+000 -1.800000e+001
         vertex 4.069612e+001 7.723413e+000 -1.500000e+001
         vertex 3.965942e+001 7.124878e+000 -1.500000e+001
      endloop
   endfacet
   facet normal 4.999998e-001 8.660255e-001 0.000000e+000
      outer loop
         vertex 3.965942e+001 4.875122e+000 -1.800000e+001
         vertex 3.965942e+001 4.875122e+000 -1.500000e+001
         vertex 4.069612e+001 4.276587e+000 -1.500000e+001
      endloop
   endfacet
   facet normal -1.000000e+000 0.000000e+000 0.000000e+000
      outer loop
         vertex 4.264446e+001 6.598535e+000 -1.500000e+001
         vertex 4.264446e+001 6.598535e+000 -1.800000e+001
         vertex 4.264446e+001 5.401465e+000 -1.800000e+001
      endloop
   endfacet
   facet normal -1.736484e-001 -9.848077e-001 0.000000e+000
      outer loop
         vertex 4.069612e+001 7.723413e+000 -1.800000e+001
         vertex 4.187500e+001 7.515544e+000 -1.800000e+001
         vertex 4.069612e+001 7.723413e+000 -1.500000e+001
      endloop
   endfacet
   facet normal 9.396922e-001 3.420213e-001 0.000000e+000
      outer loop
         vertex 3.925000e+001 6.000000e+000 -1.800000e+001
         vertex 3.965942e+001 4.875122e+000 -1.500000e+001
         vertex 3.965942e+001 4.875122e+000 -1.800000e+001
      endloop
   endfacet
   facet normal -7.660443e-001 -6.427878e-001 -0.000000e+000
      outer loop
         vertex 4.264446e+001 6.598535e+000 -1.800000e+001
         vertex 4.264446e+001 6.598535e+000 -1.500000e+001
         vertex 4.187500e+001 7.515544e+000 -1.500000e+001
      endloop
   endfacet
   facet normal 0.000000e+000 -1.000000e+000 0.000000e+000
      outer loop
         vertex 6.000000e+000 1.200000e+001 2.000000e+000
         vertex 6.000000e+000 1.200000e+001 0.000000e+000
         vertex 2.500000e+001 1.200000e+001 0.000000e+000
      endloop
   endfacet
   facet normal 0.000000e+000 -1.000000e+000 0.000000e+000
      outer loop
         vertex 6.000000e+000 1.200000e+001 2.000000e+000
         vertex 2.500000e+001 1.200000e+001 0.000000e+000
         vertex 2.500000e+001 1.200000e+001 2.000000e+000
      endloop
   endfacet
   facet normal 1.000000e+000 0.000000e+000 -0.000000e+000
      outer loop
         vertex 6.000000e+000 0.000000e+000 0.000000e+000
         vertex 6.000000e+000 1.200000e+001 0.000000e+000
         vertex 6.000000e+000 1.200000e+001 2.000000e+000
      endloop
   endfacet
   facet normal 1.000000e+000 0.000000e+000 0.000000e+000
      outer loop
         vertex 6.000000e+000 0.000000e+000 2.000000e+000
         vertex 6.000000e+000 0.000000e+000 0.000000e+000
         vertex 6.000000e+000 1.200000e+001 2.000000e+000
      endloop
   endfacet
   facet normal -0.000000e+000 1.000000e+000 0.000000e+000
      outer loop
         vertex 6.000000e+000 0.000000e+000 0.000000e+000
         vertex 6.000000e+000 0.000000e+000 2.000000e+000
         vertex 2.500000e+001 0.000000e+000 2.000000e+000
      endloop
   endfacet
   facet normal 0.000000e+000 1.000000e+000 0.000000e+000
      outer loop
         vertex 6.000000e+000 0.000000e+000 0.000000e+000
         vertex 2.500000e+001 0.000000e+000 2.000000e+000
         vertex 2.500000e+001 0.000000e+000 0.000000e+000
      endloop
   endfacet
   facet normal -1.000000e+000 -0.000000e+000 -0.000000e+000
      outer loop
         vertex 2.500000e+001 0.000000e+000 2.000000e+000
         vertex 2.500000e+001 1.200000e+001 2.000000e+000
         vertex 2.500000e+001 1.200000e+001 0.000000e+000
      endloop
   endfacet
   facet normal -1.000000e+000 0.000000e+000 0.000000e+000
      outer loop
         vertex 2.500000e+001 0.000000e+000 0.000000e+000
         vertex 2.500000e+001 0.000000e+000 2.000000e+000
         vertex 2.500000e+001 1.200000e+001 0.000000e+000
      endloop
   endfacet
   facet normal -9.510565e-001 3.090171e-001 0.000000e+000
      outer loop
         vertex 4.618034e+000 4.824430e+000 2.000000e+000
         vertex 5.000000e+000 6.000000e+000 2.000000e+000
         vertex 5.000000e+000 6.000000e+000 0.000000e+000
      endloop
   endfacet
   facet normal -0.000000e+000 1.000000e+000 0.000000e+000
      outer loop
         vertex 2.381966e+000 4.097887e+000 0.000000e+000
         vertex 2.381966e+000 4.097887e+000 2.000000e+000
         vertex 3.618034e+000 4.097887e+000 2.000000e+000
      endloop
   endfacet
   facet normal 9.510565e-001 3.090170e-001 0.000000e+000
      outer loop
         vertex 1.000000e+000 6.000000e+000 0.000000e+000
         vertex 1.000000e+000 6.000000e+000 2.000000e+000
         vertex 1.381966e+000 4.824430e+000 2.000000e+000
      endloop
   endfacet
   facet normal 5.877852e-001 -8.090170e-001 0.000000e+000
      outer loop
         vertex 2.381966e+000 7.902113e+000 0.000000e+000
         vertex 2.381966e+000 7.902113e+000 2.000000e+000
         vertex 1.381966e+000 7.175570e+000 2.000000e+000
      endloop
   endfacet
   facet normal -5.877852e-001 -8.090170e-001 -0.000000e+000
      outer loop
         vertex 4.618034e+000 7.175570e+000 0.000000e+000
         vertex 4.618034e+000 7.175570e+000 2.000000e+000
         vertex 3.618034e+000 7.902113e+000 2.000000e+000
      endloop
   endfacet
   facet normal -9.510565e-001 -3.090171e-001 0.000000e+000
      outer loop
         vertex 4.618034e+000 7.175570e+000 2.000000e+000
         vertex 5.000000e+000 6.000000e+000 0.000000e+000
         vertex 5.000000e+000 6.000000e+000 2.000000e+000
      endloop
   endfacet
   facet normal 0.000000e+000 -1.000000e+000 0.000000e+000
      outer loop
         vertex 2.381966e+000 7.902113e+000 2.000000e+000
         vertex 2.381966e+000 7.902113e+000 0.000000e+000
         vertex 3.618034e+000 7.902113e+000 0.000000e+000
      endloop
   endfacet
   facet normal 9.510565e-001 -3.090170e-001 0.000000e+000
      outer loop
         vertex 1.000000e+000 6.000000e+000 2.000000e+000
         vertex 1.000000e+000 6.000000e+000 0.000000e+000
         vertex 1.381966e+000 7.175570e+000 0.000000e+000
      endloop
   endfacet
   facet normal 5.877852e-001 8.090170e-001 -0.000000e+000
      outer loop
         vertex 2.381966e+000 4.097887e+000 2.000000e+000
         vertex 2.381966e+000 4.097887e+000 0.000000e+000
         vertex 1.381966e+000 4.824430e+000 0.000000e+000
      endloop
   endfacet
   facet normal -5.877852e-001 8.090170e-001 0.000000e+000
      outer loop
         vertex 4.618034e+000 4.824430e+000 2.000000e+000
         vertex 4.618034e+000 4.824430e+000 0.000000e+000
         vertex 3.618034e+000 4.097887e+000 0.000000e+000
      endloop
   endfacet
   facet normal -9.510565e-001 3.090171e-001 0.000000e+000
      outer loop
         vertex 4.618034e+000 4.824430e+000 0.000000e+000
         vertex 4.618034e+000 4.824430e+000 2.000000e+000
         vertex 5.000000e+000 6.000000e+000 0.000000e+000
      endloop
   endfacet
   facet normal 5.877852e-001 -8.090170e-001 0.000000e+000
      outer loop
         vertex 1.381966e+000 7.175570e+000 0.000000e+000
         vertex 2.381966e+000 7.902113e+000 0.000000e+000
         vertex 1.381966e+000 7.175570e+000 2.000000e+000
      endloop
   endfacet
   facet normal -9.510565e-001 -3.090171e-001 0.000000e+000
      outer loop
         vertex 4.618034e+000 7.175570e+000 0.000000e+000
         vertex 5.000000e+000 6.000000e+000 0.000000e+000
         vertex 4.618034e+000 7.175570e+000 2.000000e+000
      endloop
   endfacet
   facet normal -5.877852e-001 8.090170e-001 0.000000e+000
      outer loop
         vertex 3.618034e+000 4.097887e+000 2.000000e+000
         vertex 4.618034e+000 4.824430e+000 2.000000e+000
         vertex 3.618034e+000 4.097887e+000 0.000000e+000
      endloop
   endfacet
   facet normal 5.877852e-001 8.090170e-001 0.000000e+000
      outer loop
         vertex 1.381966e+000 4.824430e+000 0.000000e+000
         vertex 1.381966e+000 4.824430e+000 2.000000e+000
         vertex 2.381966e+000 4.097887e+000 2.000000e+000
      endloop
   endfacet
   facet normal -0.000000e+000 -1.000000e+000 -0.000000e+000
      outer loop
         vertex 3.618034e+000 7.902113e+000 0.000000e+000
         vertex 3.618034e+000 7.902113e+000 2.000000e+000
         vertex 2.381966e+000 7.902113e+000 2.000000e+000
      endloop
   endfacet
   facet normal 9.510565e-001 3.090170e-001 -0.000000e+000
      outer loop
         vertex 1.381966e+000 4.824430e+000 2.000000e+000
         vertex 1.381966e+000 4.824430e+000 0.000000e+000
         vertex 1.000000e+000 6.000000e+000 0.000000e+000
      endloop
   endfacet
   facet normal 0.000000e+000 1.000000e+000 0.000000e+000
      outer loop
         vertex 3.618034e+000 4.097887e+000 0.000000e+000
         vertex 2.381966e+000 4.097887e+000 0.000000e+000
         vertex 3.618034e+000 4.097887e+000 2.000000e+000
      endloop
   endfacet
   facet normal 9.510565e-001 -3.090170e-001 0.000000e+000
      outer loop
         vertex 1.000000e+000 6.000000e+000 2.000000e+000
         vertex 1.381966e+000 7.175570e+000 0.000000e+000
         vertex 1.381966e+000 7.175570e+000 2.000000e+000
      endloop
   endfacet
   facet normal -5.877852e-001 -8.090170e-001 0.000000e+000
      outer loop
         vertex 3.618034e+000 7.902113e+000 2.000000e+000
         vertex 3.618034e+000 7.902113e+000 0.000000e+000
         vertex 4.618034e+000 7.175570e+000 0.000000e+000
      endloop
   endfacet
   facet normal -9.510566e-001 3.090167e-001 0.000000e+000
      outer loop
         vertex 2.961803e+001 4.824430e+000 2.000000e+000
         vertex 3.000000e+001 6.000000e+000 2.000000e+000
         vertex 3.000000e+001 6.000000e+000 0.000000e+000
      endloop
   endfacet
   facet normal -0.000000e+000 1.000000e+000 0.000000e+000
      outer loop
         vertex 2.738197e+001 4.097887e+000 0.000000e+000
         vertex 2.738197e+001 4.097887e+000 2.000000e+000
         vertex 2.861803e+001 4.097887e+000 2.000000e+000
      endloop
   endfacet
   facet normal 9.510566e-001 3.090167e-001 0.000000e+000
      outer loop
         vertex 2.600000e+001 6.000000e+000 0.000000e+000
         vertex 2.600000e+001 6.000000e+000 2.000000e+000
         vertex 2.638197e+001 4.824430e+000 2.000000e+000
      endloop
   endfacet
   facet normal 5.877852e-001 -8.090170e-001 0.000000e+000
      outer loop
         vertex 2.738197e+001 7.902113e+000 0.000000e+000
         vertex 2.738197e+001 7.902113e+000 2.000000e+000
         vertex 2.638197e+001 7.175570e+000 2.000000e+000
      endloop
   endfacet
   facet normal -5.877852e-001 -8.090170e-001 -0.000000e+000
      outer loop
         vertex 2.961803e+001 7.175570e+000 0.000000e+000
         vertex 2.961803e+001 7.175570e+000 2.000000e+000
         vertex 2.861803e+001 7.902113e+000 2.000000e+000
      endloop
   endfacet
   facet normal -9.510566e-001 -3.090167e-001 0.000000e+000
      outer loop
         vertex 2.961803e+001 7.175570e+000 2.000000e+000
         vertex 3.000000e+001 6.000000e+000 0.000000e+000
         vertex 3.000000e+001 6.000000e+000 2.000000e+000
      endloop
   endfacet
   facet normal 0.000000e+000 -1.000000e+000 0.000000e+000
      outer loop
         vertex 2.738197e+001 7.902113e+000 2.000000e+000
         vertex 2.738197e+001 7.902113e+000 0.000000e+000
         vertex 2.861803e+001 7.902113e+000 0.000000e+000
      endloop
   endfacet
   facet normal 9.510566e-001 -3.090167e-001 0.000000e+000
      outer loop
         vertex 2.600000e+001 6.000000e+000 2.000000e+000
         vertex 2.600000e+001 6.000000e+000 0.000000e+000
         vertex 2.638197e+001 7.175570e+000 0.000000e+000
      endloop
   endfacet
   facet normal 5.877852e-001 8.090170e-001 -0.000000e+000
      outer loop
         vertex 2.738197e+001 4.097887e+000 2.000000e+000
         vertex 2.738197e+001 4.097887e+000 0.000000e+000
         vertex 2.638197e+001 4.824430e+000 0.000000e+000
      endloop
   endfacet
   facet normal -5.877852e-001 8.090170e-001 0.000000e+000
      outer loop
         vertex 2.961803e+001 4.824430e+000 2.000000e+000
         vertex 2.961803e+001 4.824430e+000 0.000000e+000
         vertex 2.861803e+001 4.097887e+000 0.000000e+000
      endloop
   endfacet
   facet normal -9.510566e-001 3.090167e-001 0.000000e+000
      outer loop
         vertex 2.961803e+001 4.824430e+000 0.000000e+000
         vertex 2.961803e+001 4.824430e+000 2.000000e+000
         vertex 3.000000e+001 6.000000e+000 0.000000e+000
      endloop
   endfacet
   facet normal 5.877852e-001 -8.090170e-001 0.000000e+000
      outer loop
         vertex 2.638197e+001 7.175570e+000 0.000000e+000
         vertex 2.738197e+001 7.902113e+000 0.000000e+000
         vertex 2.638197e+001 7.175570e+000 2.000000e+000
      endloop
   endfacet
   facet normal -9.510566e-001 -3.090167e-001 0.000000e+000
      outer loop
         vertex 2.961803e+001 7.175570e+000 0.000000e+000
         vertex 3.000000e+001 6.000000e+000 0.000000e+000
         vertex 2.961803e+001 7.175570e+000 2.000000e+000
      endloop
   endfacet
   facet normal -5.877852e-001 8.090170e-001 0.000000e+000
      outer loop
         vertex 2.861803e+001 4.097887e+000 2.000000e+000
         vertex 2.961803e+001 4.824430e+000 2.000000e+000
         vertex 2.861803e+001 4.097887e+000 0.000000e+000
      endloop
   endfacet
   facet normal 5.877852e-001 8.090170e-001 0.000000e+000
      outer loop
         vertex 2.638197e+001 4.824430e+000 0.000000e+000
         vertex 2.638197e+001 4.824430e+000 2.000000e+000
         vertex 2.738197e+001 4.097887e+000 2.000000e+000
      endloop
   endfacet
   facet normal -0.000000e+000 -1.000000e+000 -0.000000e+000
      outer loop
         vertex 2.861803e+001 7.902113e+000 0.000000e+000
         vertex 2.861803e+001 7.902113e+000 2.000000e+000
         vertex 2.738197e+001 7.902113e+000 2.000000e+000
      endloop
   endfacet
   facet normal 9.510566e-001 3.090167e-001 -0.000000e+000
      outer loop
         vertex 2.638197e+001 4.824430e+000 2.000000e+000
         vertex 2.638197e+001 4.824430e+000 0.000000e+000
         vertex 2.600000e+001 6.000000e+000 0.000000e+000
      endloop
   endfacet
   facet normal 0.000000e+000 1.000000e+000 0.000000e+000
      outer loop
         vertex 2.861803e+001 4.097887e+000 0.000000e+000
         vertex 2.738197e+001 4.097887e+000 0.000000e+000
         vertex 2.861803e+001 4.097887e+000 2.000000e+000
      endloop
   endfacet
   facet normal 9.510566e-001 -3.090167e-001 0.000000e+000
      outer loop
         vertex 2.600000e+001 6.000000e+000 2.000000e+000
         vertex 2.638197e+001 7.175570e+000 0.000000e+000
         vertex 2.638197e+001 7.175570e+000 2.000000e+000
      endloop
   endfacet
   facet normal -5.877852e-001 -8.090170e-001 0.000000e+000
      outer loop
         vertex 2.861803e+001 7.902113e+000 2.000000e+000
         vertex 2.861803e+001 7.902113e+000 0.000000e+000
         vertex 2.961803e+001 7.175570e+000 0.000000e+000
      endloop
   endfacet
   facet normal 7.071068e-001 0.000000e+000 7.071068e-001
      outer loop
         vertex 3.650000e+001 -4.000000e+000 -1.500000e+001
         vertex 3.650000e+001 1.600000e+001 -1.500000e+001
         vertex 3.500000e+001 1.600000e+001 -1.350000e+001
      endloop
   endfacet
   facet normal 7.071068e-001 0.000000e+000 7.071068e-001
      outer loop
         vertex 3.650000e+001 -4.000000e+000 -1.500000e+001
         vertex 3.500000e+001 1.600000e+001 -1.350000e+001
         vertex 3.500000e+001 -4.000000e+000 -1.350000e+001
      endloop
   endfacet
   facet normal -7.071068e-001 0.000000e+000 7.071068e-001
      outer loop
         vertex -5.500000e+000 1.600000e+001 -1.500000e+001
         vertex -5.500000e+000 -4.000000e+000 -1.500000e+001
         vertex -4.000000e+000 -4.000000e+000 -1.350000e+001
      endloop
   endfacet
   facet normal -7.071068e-001 0.000000e+000 7.071068e-001
      outer loop
         vertex -5.500000e+000 1.600000e+001 -1.500000e+001
         vertex -4.000000e+000 -4.000000e+000 -1.350000e+001
         vertex -4.000000e+000 1.600000e+001 -1.350000e+001
      endloop
   endfacet
   facet normal 7.071068e-001 7.071068e-001 0.000000e+000
      outer loop
         vertex 4.000000e+001 1.600000e+001 -1.500000e+001
         vertex 4.500000e+001 1.100000e+001 -1.800000e+001
         vertex 4.000000e+001 1.600000e+001 -1.800000e+001
      endloop
   endfacet
   facet normal 7.071068e-001 7.071068e-001 0.000000e+000
      outer loop
         vertex 4.500000e+001 1.100000e+001 -1.800000e+001
         vertex 4.000000e+001 1.600000e+001 -1.500000e+001
         vertex 4.500000e+001 1.100000e+001 -1.500000e+001
      endloop
   endfacet
   facet normal -7.071068e-001 7.071068e-001 0.000000e+000
      outer loop
         vertex -1.400000e+001 1.100000e+001 -1.500000e+001
         vertex -9.000000e+000 1.600000e+001 -1.800000e+001
         vertex -1.400000e+001 1.100000e+001 -1.800000e+001
      endloop
   endfacet
   facet normal -7.071068e-001 7.071068e-001 0.000000e+000
      outer loop
         vertex -9.000000e+000 1.600000e+001 -1.800000e+001
         vertex -1.400000e+001 1.100000e+001 -1.500000e+001
         vertex -9.000000e+000 1.600000e+001 -1.500000e+001
      endloop
   endfacet
   facet normal -7.071068e-001 -7.071068e-001 0.000000e+000
      outer loop
         vertex -1.400000e+001 1.000000e+000 -1.500000e+001
         vertex -1.400000e+001 1.000000e+000 -1.800000e+001
         vertex -9.000000e+000 -4.000000e+000 -1.800000e+001
      endloop
   endfacet
   facet normal -7.071068e-001 -7.071068e-001 0.000000e+000
      outer loop
         vertex -1.400000e+001 1.000000e+000 -1.500000e+001
         vertex -9.000000e+000 -4.000000e+000 -1.800000e+001
         vertex -9.000000e+000 -4.000000e+000 -1.500000e+001
      endloop
   endfacet
   facet normal 7.071068e-001 -7.071068e-001 0.000000e+000
      outer loop
         vertex 4.500000e+001 1.000000e+000 -1.500000e+001
         vertex 4.000000e+001 -4.000000e+000 -1.800000e+001
         vertex 4.500000e+001 1.000000e+000 -1.800000e+001
      endloop
   endfacet
   facet normal 7.071068e-001 -7.071068e-001 0.000000e+000
      outer loop
         vertex 4.000000e+001 -4.000000e+000 -1.800000e+001
         vertex 4.500000e+001 1.000000e+000 -1.500000e+001
         vertex 4.000000e+001 -4.000000e+000 -1.500000e+001
      endloop
   endfacet
endsolid
